<mxfile host="Electron" agent="Mozilla/5.0 (X11; Linux x86_64) AppleWebKit/537.36 (KHTML, like Gecko) draw.io/24.7.17 Chrome/128.0.6613.36 Electron/32.0.1 Safari/537.36" version="24.7.17">
  <diagram name="Page-1" id="7aCgn2YYwjlAqSPY91eP">
    <mxGraphModel dx="466" dy="837" grid="1" gridSize="10" guides="1" tooltips="1" connect="1" arrows="1" fold="1" page="1" pageScale="1" pageWidth="1169" pageHeight="827" math="1" shadow="0">
      <root>
        <mxCell id="0" />
        <mxCell id="1" parent="0" />
        <mxCell id="nGFGVpOnhUjNSuGuY7ih-82" value="" style="shape=mxgraph.sysml.x;strokeWidth=1.618;" vertex="1" parent="1">
          <mxGeometry x="730" y="145" width="20" height="20" as="geometry" />
        </mxCell>
        <mxCell id="nGFGVpOnhUjNSuGuY7ih-38" value="" style="ellipse;whiteSpace=wrap;html=1;aspect=fixed;" vertex="1" parent="1">
          <mxGeometry x="420" y="270" width="20" height="20" as="geometry" />
        </mxCell>
        <mxCell id="nGFGVpOnhUjNSuGuY7ih-21" value="" style="ellipse;whiteSpace=wrap;html=1;aspect=fixed;" vertex="1" parent="1">
          <mxGeometry x="340" y="270" width="20" height="20" as="geometry" />
        </mxCell>
        <mxCell id="nGFGVpOnhUjNSuGuY7ih-15" value="" style="ellipse;whiteSpace=wrap;html=1;aspect=fixed;" vertex="1" parent="1">
          <mxGeometry x="260" y="230" width="20" height="20" as="geometry" />
        </mxCell>
        <mxCell id="nGFGVpOnhUjNSuGuY7ih-14" value="" style="ellipse;whiteSpace=wrap;html=1;aspect=fixed;" vertex="1" parent="1">
          <mxGeometry x="180" y="270" width="20" height="20" as="geometry" />
        </mxCell>
        <mxCell id="nGFGVpOnhUjNSuGuY7ih-8" value="" style="ellipse;whiteSpace=wrap;html=1;aspect=fixed;" vertex="1" parent="1">
          <mxGeometry x="100" y="270" width="20" height="20" as="geometry" />
        </mxCell>
        <mxCell id="nGFGVpOnhUjNSuGuY7ih-7" value="" style="ellipse;whiteSpace=wrap;html=1;aspect=fixed;" vertex="1" parent="1">
          <mxGeometry x="100" y="190" width="20" height="20" as="geometry" />
        </mxCell>
        <mxCell id="nGFGVpOnhUjNSuGuY7ih-1" value="" style="endArrow=none;html=1;rounded=0;" edge="1" parent="1" source="nGFGVpOnhUjNSuGuY7ih-23">
          <mxGeometry width="50" height="50" relative="1" as="geometry">
            <mxPoint x="80" y="160" as="sourcePoint" />
            <mxPoint x="480" y="155" as="targetPoint" />
          </mxGeometry>
        </mxCell>
        <mxCell id="nGFGVpOnhUjNSuGuY7ih-2" value="" style="endArrow=none;html=1;rounded=0;" edge="1" parent="1" source="nGFGVpOnhUjNSuGuY7ih-33">
          <mxGeometry width="50" height="50" relative="1" as="geometry">
            <mxPoint x="80" y="200" as="sourcePoint" />
            <mxPoint x="480" y="200" as="targetPoint" />
          </mxGeometry>
        </mxCell>
        <mxCell id="nGFGVpOnhUjNSuGuY7ih-3" value="" style="endArrow=none;html=1;rounded=0;" edge="1" parent="1" source="nGFGVpOnhUjNSuGuY7ih-15">
          <mxGeometry width="50" height="50" relative="1" as="geometry">
            <mxPoint x="80" y="240" as="sourcePoint" />
            <mxPoint x="480" y="240" as="targetPoint" />
          </mxGeometry>
        </mxCell>
        <mxCell id="nGFGVpOnhUjNSuGuY7ih-4" value="" style="endArrow=none;html=1;rounded=0;" edge="1" parent="1" source="nGFGVpOnhUjNSuGuY7ih-21">
          <mxGeometry width="50" height="50" relative="1" as="geometry">
            <mxPoint x="80" y="280" as="sourcePoint" />
            <mxPoint x="360" y="280" as="targetPoint" />
          </mxGeometry>
        </mxCell>
        <mxCell id="nGFGVpOnhUjNSuGuY7ih-20" value="" style="endArrow=none;html=1;rounded=0;entryX=1;entryY=0.5;entryDx=0;entryDy=0;" edge="1" parent="1" source="nGFGVpOnhUjNSuGuY7ih-26" target="nGFGVpOnhUjNSuGuY7ih-15">
          <mxGeometry width="50" height="50" relative="1" as="geometry">
            <mxPoint x="80" y="240" as="sourcePoint" />
            <mxPoint x="360" y="240" as="targetPoint" />
          </mxGeometry>
        </mxCell>
        <mxCell id="nGFGVpOnhUjNSuGuY7ih-22" value="" style="endArrow=none;html=1;rounded=0;" edge="1" parent="1">
          <mxGeometry width="50" height="50" relative="1" as="geometry">
            <mxPoint x="80" y="280" as="sourcePoint" />
            <mxPoint x="480" y="280" as="targetPoint" />
          </mxGeometry>
        </mxCell>
        <mxCell id="nGFGVpOnhUjNSuGuY7ih-25" value="" style="endArrow=none;html=1;rounded=0;" edge="1" parent="1" target="nGFGVpOnhUjNSuGuY7ih-23">
          <mxGeometry width="50" height="50" relative="1" as="geometry">
            <mxPoint x="80" y="155" as="sourcePoint" />
            <mxPoint x="400" y="160" as="targetPoint" />
          </mxGeometry>
        </mxCell>
        <mxCell id="nGFGVpOnhUjNSuGuY7ih-31" style="edgeStyle=orthogonalEdgeStyle;rounded=0;orthogonalLoop=1;jettySize=auto;html=1;entryX=0.5;entryY=1;entryDx=0;entryDy=0;endArrow=none;endFill=0;" edge="1" parent="1" source="nGFGVpOnhUjNSuGuY7ih-23" target="nGFGVpOnhUjNSuGuY7ih-7">
          <mxGeometry relative="1" as="geometry">
            <Array as="points">
              <mxPoint x="110" y="200" />
              <mxPoint x="110" y="200" />
            </Array>
          </mxGeometry>
        </mxCell>
        <mxCell id="nGFGVpOnhUjNSuGuY7ih-23" value="" style="shape=ellipse;fillColor=#000000;strokeColor=none;html=1;sketch=0;" vertex="1" parent="1">
          <mxGeometry x="105" y="150" width="10" height="10" as="geometry" />
        </mxCell>
        <mxCell id="nGFGVpOnhUjNSuGuY7ih-27" value="" style="endArrow=none;html=1;rounded=0;entryX=1;entryY=0.5;entryDx=0;entryDy=0;" edge="1" parent="1" target="nGFGVpOnhUjNSuGuY7ih-26">
          <mxGeometry width="50" height="50" relative="1" as="geometry">
            <mxPoint x="80" y="240" as="sourcePoint" />
            <mxPoint x="280" y="240" as="targetPoint" />
          </mxGeometry>
        </mxCell>
        <mxCell id="nGFGVpOnhUjNSuGuY7ih-32" style="edgeStyle=orthogonalEdgeStyle;rounded=0;orthogonalLoop=1;jettySize=auto;html=1;entryX=0.5;entryY=1;entryDx=0;entryDy=0;endArrow=none;endFill=0;" edge="1" parent="1" source="nGFGVpOnhUjNSuGuY7ih-26" target="nGFGVpOnhUjNSuGuY7ih-8">
          <mxGeometry relative="1" as="geometry">
            <Array as="points">
              <mxPoint x="110" y="290" />
              <mxPoint x="110" y="290" />
            </Array>
          </mxGeometry>
        </mxCell>
        <mxCell id="nGFGVpOnhUjNSuGuY7ih-26" value="" style="shape=ellipse;fillColor=#000000;strokeColor=none;html=1;sketch=0;" vertex="1" parent="1">
          <mxGeometry x="105" y="235" width="10" height="10" as="geometry" />
        </mxCell>
        <mxCell id="nGFGVpOnhUjNSuGuY7ih-29" value="" style="endArrow=none;html=1;rounded=0;" edge="1" parent="1" target="nGFGVpOnhUjNSuGuY7ih-28">
          <mxGeometry width="50" height="50" relative="1" as="geometry">
            <mxPoint x="80" y="200" as="sourcePoint" />
            <mxPoint x="400" y="200" as="targetPoint" />
          </mxGeometry>
        </mxCell>
        <mxCell id="nGFGVpOnhUjNSuGuY7ih-30" style="edgeStyle=orthogonalEdgeStyle;rounded=0;orthogonalLoop=1;jettySize=auto;html=1;entryX=0.5;entryY=1;entryDx=0;entryDy=0;endArrow=none;endFill=0;" edge="1" parent="1" source="nGFGVpOnhUjNSuGuY7ih-28" target="nGFGVpOnhUjNSuGuY7ih-14">
          <mxGeometry relative="1" as="geometry">
            <Array as="points">
              <mxPoint x="190" y="270" />
              <mxPoint x="190" y="270" />
            </Array>
          </mxGeometry>
        </mxCell>
        <mxCell id="nGFGVpOnhUjNSuGuY7ih-28" value="" style="shape=ellipse;fillColor=#000000;strokeColor=none;html=1;sketch=0;" vertex="1" parent="1">
          <mxGeometry x="185" y="195" width="10" height="10" as="geometry" />
        </mxCell>
        <mxCell id="nGFGVpOnhUjNSuGuY7ih-34" value="" style="endArrow=none;html=1;rounded=0;" edge="1" parent="1" source="nGFGVpOnhUjNSuGuY7ih-28" target="nGFGVpOnhUjNSuGuY7ih-33">
          <mxGeometry width="50" height="50" relative="1" as="geometry">
            <mxPoint x="195" y="200" as="sourcePoint" />
            <mxPoint x="400" y="200" as="targetPoint" />
          </mxGeometry>
        </mxCell>
        <mxCell id="nGFGVpOnhUjNSuGuY7ih-35" style="edgeStyle=orthogonalEdgeStyle;rounded=0;orthogonalLoop=1;jettySize=auto;html=1;entryX=0.5;entryY=1;entryDx=0;entryDy=0;endArrow=none;endFill=0;" edge="1" parent="1" source="nGFGVpOnhUjNSuGuY7ih-33" target="nGFGVpOnhUjNSuGuY7ih-15">
          <mxGeometry relative="1" as="geometry">
            <Array as="points">
              <mxPoint x="270" y="250" />
              <mxPoint x="270" y="250" />
            </Array>
          </mxGeometry>
        </mxCell>
        <mxCell id="nGFGVpOnhUjNSuGuY7ih-33" value="" style="shape=ellipse;fillColor=#000000;strokeColor=none;html=1;sketch=0;" vertex="1" parent="1">
          <mxGeometry x="265" y="195" width="10" height="10" as="geometry" />
        </mxCell>
        <mxCell id="nGFGVpOnhUjNSuGuY7ih-37" style="edgeStyle=orthogonalEdgeStyle;rounded=0;orthogonalLoop=1;jettySize=auto;html=1;entryX=0.5;entryY=1;entryDx=0;entryDy=0;endArrow=none;endFill=0;" edge="1" parent="1" source="nGFGVpOnhUjNSuGuY7ih-36" target="nGFGVpOnhUjNSuGuY7ih-21">
          <mxGeometry relative="1" as="geometry">
            <Array as="points">
              <mxPoint x="350" y="280" />
              <mxPoint x="350" y="280" />
            </Array>
          </mxGeometry>
        </mxCell>
        <mxCell id="nGFGVpOnhUjNSuGuY7ih-36" value="" style="shape=ellipse;fillColor=#000000;strokeColor=none;html=1;sketch=0;" vertex="1" parent="1">
          <mxGeometry x="345" y="235" width="10" height="10" as="geometry" />
        </mxCell>
        <mxCell id="nGFGVpOnhUjNSuGuY7ih-41" style="edgeStyle=orthogonalEdgeStyle;rounded=0;orthogonalLoop=1;jettySize=auto;html=1;exitX=0;exitY=0.5;exitDx=0;exitDy=0;endArrow=none;endFill=0;" edge="1" parent="1" source="nGFGVpOnhUjNSuGuY7ih-38">
          <mxGeometry relative="1" as="geometry">
            <mxPoint x="440" y="280" as="targetPoint" />
          </mxGeometry>
        </mxCell>
        <mxCell id="nGFGVpOnhUjNSuGuY7ih-40" style="edgeStyle=orthogonalEdgeStyle;rounded=0;orthogonalLoop=1;jettySize=auto;html=1;entryX=0.5;entryY=1;entryDx=0;entryDy=0;endArrow=none;endFill=0;" edge="1" parent="1" source="nGFGVpOnhUjNSuGuY7ih-39" target="nGFGVpOnhUjNSuGuY7ih-38">
          <mxGeometry relative="1" as="geometry">
            <Array as="points">
              <mxPoint x="430" y="260" />
              <mxPoint x="430" y="260" />
            </Array>
          </mxGeometry>
        </mxCell>
        <mxCell id="nGFGVpOnhUjNSuGuY7ih-39" value="" style="shape=ellipse;fillColor=#000000;strokeColor=none;html=1;sketch=0;" vertex="1" parent="1">
          <mxGeometry x="425" y="150" width="10" height="10" as="geometry" />
        </mxCell>
        <mxCell id="nGFGVpOnhUjNSuGuY7ih-42" value="$$\ket{q_1}$$" style="text;html=1;align=center;verticalAlign=middle;whiteSpace=wrap;rounded=0;" vertex="1" parent="1">
          <mxGeometry x="50" y="140" width="30" height="30" as="geometry" />
        </mxCell>
        <mxCell id="nGFGVpOnhUjNSuGuY7ih-43" value="$$\ket{q_2}$$" style="text;html=1;align=center;verticalAlign=middle;whiteSpace=wrap;rounded=0;" vertex="1" parent="1">
          <mxGeometry x="50" y="185" width="30" height="30" as="geometry" />
        </mxCell>
        <mxCell id="nGFGVpOnhUjNSuGuY7ih-44" value="$$\ket{q_3}$$" style="text;html=1;align=center;verticalAlign=middle;whiteSpace=wrap;rounded=0;" vertex="1" parent="1">
          <mxGeometry x="50" y="225" width="30" height="30" as="geometry" />
        </mxCell>
        <mxCell id="nGFGVpOnhUjNSuGuY7ih-45" value="$$\ket{q_4}$$" style="text;html=1;align=center;verticalAlign=middle;whiteSpace=wrap;rounded=0;" vertex="1" parent="1">
          <mxGeometry x="50" y="265" width="30" height="30" as="geometry" />
        </mxCell>
        <mxCell id="nGFGVpOnhUjNSuGuY7ih-46" value="" style="ellipse;whiteSpace=wrap;html=1;aspect=fixed;" vertex="1" parent="1">
          <mxGeometry x="960" y="270" width="20" height="20" as="geometry" />
        </mxCell>
        <mxCell id="nGFGVpOnhUjNSuGuY7ih-47" value="" style="ellipse;whiteSpace=wrap;html=1;aspect=fixed;" vertex="1" parent="1">
          <mxGeometry x="880" y="270" width="20" height="20" as="geometry" />
        </mxCell>
        <mxCell id="nGFGVpOnhUjNSuGuY7ih-48" value="" style="ellipse;whiteSpace=wrap;html=1;aspect=fixed;" vertex="1" parent="1">
          <mxGeometry x="800" y="230" width="20" height="20" as="geometry" />
        </mxCell>
        <mxCell id="nGFGVpOnhUjNSuGuY7ih-49" value="" style="ellipse;whiteSpace=wrap;html=1;aspect=fixed;" vertex="1" parent="1">
          <mxGeometry x="660" y="270" width="20" height="20" as="geometry" />
        </mxCell>
        <mxCell id="nGFGVpOnhUjNSuGuY7ih-50" value="" style="ellipse;whiteSpace=wrap;html=1;aspect=fixed;" vertex="1" parent="1">
          <mxGeometry x="580" y="270" width="20" height="20" as="geometry" />
        </mxCell>
        <mxCell id="nGFGVpOnhUjNSuGuY7ih-51" value="" style="ellipse;whiteSpace=wrap;html=1;aspect=fixed;" vertex="1" parent="1">
          <mxGeometry x="580" y="190" width="20" height="20" as="geometry" />
        </mxCell>
        <mxCell id="nGFGVpOnhUjNSuGuY7ih-52" value="" style="endArrow=none;html=1;rounded=0;" edge="1" parent="1">
          <mxGeometry width="50" height="50" relative="1" as="geometry">
            <mxPoint x="730" y="155" as="sourcePoint" />
            <mxPoint x="1040" y="155" as="targetPoint" />
          </mxGeometry>
        </mxCell>
        <mxCell id="nGFGVpOnhUjNSuGuY7ih-53" value="" style="endArrow=none;html=1;rounded=0;" edge="1" parent="1" source="nGFGVpOnhUjNSuGuY7ih-69">
          <mxGeometry width="50" height="50" relative="1" as="geometry">
            <mxPoint x="560" y="200" as="sourcePoint" />
            <mxPoint x="1040" y="200" as="targetPoint" />
          </mxGeometry>
        </mxCell>
        <mxCell id="nGFGVpOnhUjNSuGuY7ih-54" value="" style="endArrow=none;html=1;rounded=0;" edge="1" parent="1" source="nGFGVpOnhUjNSuGuY7ih-48">
          <mxGeometry width="50" height="50" relative="1" as="geometry">
            <mxPoint x="560" y="240" as="sourcePoint" />
            <mxPoint x="1040" y="240" as="targetPoint" />
          </mxGeometry>
        </mxCell>
        <mxCell id="nGFGVpOnhUjNSuGuY7ih-55" value="" style="endArrow=none;html=1;rounded=0;" edge="1" parent="1" source="nGFGVpOnhUjNSuGuY7ih-47">
          <mxGeometry width="50" height="50" relative="1" as="geometry">
            <mxPoint x="620" y="280" as="sourcePoint" />
            <mxPoint x="900" y="280" as="targetPoint" />
          </mxGeometry>
        </mxCell>
        <mxCell id="nGFGVpOnhUjNSuGuY7ih-56" value="" style="endArrow=none;html=1;rounded=0;entryX=1;entryY=0.5;entryDx=0;entryDy=0;" edge="1" parent="1" source="nGFGVpOnhUjNSuGuY7ih-63" target="nGFGVpOnhUjNSuGuY7ih-48">
          <mxGeometry width="50" height="50" relative="1" as="geometry">
            <mxPoint x="560" y="240" as="sourcePoint" />
            <mxPoint x="840" y="240" as="targetPoint" />
          </mxGeometry>
        </mxCell>
        <mxCell id="nGFGVpOnhUjNSuGuY7ih-57" value="" style="endArrow=none;html=1;rounded=0;" edge="1" parent="1">
          <mxGeometry width="50" height="50" relative="1" as="geometry">
            <mxPoint x="1000" y="280" as="sourcePoint" />
            <mxPoint x="1040" y="280" as="targetPoint" />
          </mxGeometry>
        </mxCell>
        <mxCell id="nGFGVpOnhUjNSuGuY7ih-58" value="" style="endArrow=none;html=1;rounded=0;" edge="1" parent="1" target="nGFGVpOnhUjNSuGuY7ih-60">
          <mxGeometry width="50" height="50" relative="1" as="geometry">
            <mxPoint x="560" y="155" as="sourcePoint" />
            <mxPoint x="880" y="160" as="targetPoint" />
          </mxGeometry>
        </mxCell>
        <mxCell id="nGFGVpOnhUjNSuGuY7ih-59" style="edgeStyle=orthogonalEdgeStyle;rounded=0;orthogonalLoop=1;jettySize=auto;html=1;entryX=0.5;entryY=1;entryDx=0;entryDy=0;endArrow=none;endFill=0;" edge="1" parent="1" source="nGFGVpOnhUjNSuGuY7ih-60" target="nGFGVpOnhUjNSuGuY7ih-51">
          <mxGeometry relative="1" as="geometry">
            <Array as="points">
              <mxPoint x="590" y="200" />
              <mxPoint x="590" y="200" />
            </Array>
          </mxGeometry>
        </mxCell>
        <mxCell id="nGFGVpOnhUjNSuGuY7ih-60" value="" style="shape=ellipse;fillColor=#000000;strokeColor=none;html=1;sketch=0;" vertex="1" parent="1">
          <mxGeometry x="585" y="150" width="10" height="10" as="geometry" />
        </mxCell>
        <mxCell id="nGFGVpOnhUjNSuGuY7ih-61" value="" style="endArrow=none;html=1;rounded=0;entryX=1;entryY=0.5;entryDx=0;entryDy=0;" edge="1" parent="1" target="nGFGVpOnhUjNSuGuY7ih-63">
          <mxGeometry width="50" height="50" relative="1" as="geometry">
            <mxPoint x="560" y="240" as="sourcePoint" />
            <mxPoint x="760" y="240" as="targetPoint" />
          </mxGeometry>
        </mxCell>
        <mxCell id="nGFGVpOnhUjNSuGuY7ih-62" style="edgeStyle=orthogonalEdgeStyle;rounded=0;orthogonalLoop=1;jettySize=auto;html=1;entryX=0.5;entryY=1;entryDx=0;entryDy=0;endArrow=none;endFill=0;" edge="1" parent="1" source="nGFGVpOnhUjNSuGuY7ih-63" target="nGFGVpOnhUjNSuGuY7ih-50">
          <mxGeometry relative="1" as="geometry">
            <Array as="points">
              <mxPoint x="590" y="290" />
              <mxPoint x="590" y="290" />
            </Array>
          </mxGeometry>
        </mxCell>
        <mxCell id="nGFGVpOnhUjNSuGuY7ih-63" value="" style="shape=ellipse;fillColor=#000000;strokeColor=none;html=1;sketch=0;" vertex="1" parent="1">
          <mxGeometry x="585" y="235" width="10" height="10" as="geometry" />
        </mxCell>
        <mxCell id="nGFGVpOnhUjNSuGuY7ih-64" value="" style="endArrow=none;html=1;rounded=0;" edge="1" parent="1" target="nGFGVpOnhUjNSuGuY7ih-66">
          <mxGeometry width="50" height="50" relative="1" as="geometry">
            <mxPoint x="560" y="200" as="sourcePoint" />
            <mxPoint x="880" y="200" as="targetPoint" />
          </mxGeometry>
        </mxCell>
        <mxCell id="nGFGVpOnhUjNSuGuY7ih-65" style="edgeStyle=orthogonalEdgeStyle;rounded=0;orthogonalLoop=1;jettySize=auto;html=1;entryX=0.5;entryY=1;entryDx=0;entryDy=0;endArrow=none;endFill=0;" edge="1" parent="1" source="nGFGVpOnhUjNSuGuY7ih-66" target="nGFGVpOnhUjNSuGuY7ih-49">
          <mxGeometry relative="1" as="geometry">
            <Array as="points">
              <mxPoint x="670" y="270" />
              <mxPoint x="670" y="270" />
            </Array>
          </mxGeometry>
        </mxCell>
        <mxCell id="nGFGVpOnhUjNSuGuY7ih-66" value="" style="shape=ellipse;fillColor=#000000;strokeColor=none;html=1;sketch=0;" vertex="1" parent="1">
          <mxGeometry x="665" y="195" width="10" height="10" as="geometry" />
        </mxCell>
        <mxCell id="nGFGVpOnhUjNSuGuY7ih-67" value="" style="endArrow=none;html=1;rounded=0;" edge="1" parent="1" source="nGFGVpOnhUjNSuGuY7ih-66" target="nGFGVpOnhUjNSuGuY7ih-69">
          <mxGeometry width="50" height="50" relative="1" as="geometry">
            <mxPoint x="675" y="200" as="sourcePoint" />
            <mxPoint x="880" y="200" as="targetPoint" />
          </mxGeometry>
        </mxCell>
        <mxCell id="nGFGVpOnhUjNSuGuY7ih-68" style="edgeStyle=orthogonalEdgeStyle;rounded=0;orthogonalLoop=1;jettySize=auto;html=1;entryX=0.5;entryY=1;entryDx=0;entryDy=0;endArrow=none;endFill=0;" edge="1" parent="1" source="nGFGVpOnhUjNSuGuY7ih-69" target="nGFGVpOnhUjNSuGuY7ih-48">
          <mxGeometry relative="1" as="geometry">
            <Array as="points">
              <mxPoint x="810" y="250" />
              <mxPoint x="810" y="250" />
            </Array>
          </mxGeometry>
        </mxCell>
        <mxCell id="nGFGVpOnhUjNSuGuY7ih-69" value="" style="shape=ellipse;fillColor=#000000;strokeColor=none;html=1;sketch=0;" vertex="1" parent="1">
          <mxGeometry x="805" y="195" width="10" height="10" as="geometry" />
        </mxCell>
        <mxCell id="nGFGVpOnhUjNSuGuY7ih-70" style="edgeStyle=orthogonalEdgeStyle;rounded=0;orthogonalLoop=1;jettySize=auto;html=1;entryX=0.5;entryY=1;entryDx=0;entryDy=0;endArrow=none;endFill=0;" edge="1" parent="1" source="nGFGVpOnhUjNSuGuY7ih-71" target="nGFGVpOnhUjNSuGuY7ih-47">
          <mxGeometry relative="1" as="geometry">
            <Array as="points">
              <mxPoint x="890" y="280" />
              <mxPoint x="890" y="280" />
            </Array>
          </mxGeometry>
        </mxCell>
        <mxCell id="nGFGVpOnhUjNSuGuY7ih-71" value="" style="shape=ellipse;fillColor=#000000;strokeColor=none;html=1;sketch=0;" vertex="1" parent="1">
          <mxGeometry x="885" y="235" width="10" height="10" as="geometry" />
        </mxCell>
        <mxCell id="nGFGVpOnhUjNSuGuY7ih-72" style="edgeStyle=orthogonalEdgeStyle;rounded=0;orthogonalLoop=1;jettySize=auto;html=1;exitX=0;exitY=0.5;exitDx=0;exitDy=0;endArrow=none;endFill=0;" edge="1" parent="1" source="nGFGVpOnhUjNSuGuY7ih-46">
          <mxGeometry relative="1" as="geometry">
            <mxPoint x="900" y="280" as="targetPoint" />
          </mxGeometry>
        </mxCell>
        <mxCell id="nGFGVpOnhUjNSuGuY7ih-73" style="edgeStyle=orthogonalEdgeStyle;rounded=0;orthogonalLoop=1;jettySize=auto;html=1;entryX=0.5;entryY=1;entryDx=0;entryDy=0;endArrow=none;endFill=0;" edge="1" parent="1" source="nGFGVpOnhUjNSuGuY7ih-74" target="nGFGVpOnhUjNSuGuY7ih-46">
          <mxGeometry relative="1" as="geometry">
            <Array as="points">
              <mxPoint x="970" y="260" />
              <mxPoint x="970" y="260" />
            </Array>
          </mxGeometry>
        </mxCell>
        <mxCell id="nGFGVpOnhUjNSuGuY7ih-74" value="" style="shape=ellipse;fillColor=#000000;strokeColor=none;html=1;sketch=0;" vertex="1" parent="1">
          <mxGeometry x="965" y="150" width="10" height="10" as="geometry" />
        </mxCell>
        <mxCell id="nGFGVpOnhUjNSuGuY7ih-75" value="$$\ket{q_1}$$" style="text;html=1;align=center;verticalAlign=middle;whiteSpace=wrap;rounded=0;" vertex="1" parent="1">
          <mxGeometry x="530" y="140" width="30" height="30" as="geometry" />
        </mxCell>
        <mxCell id="nGFGVpOnhUjNSuGuY7ih-76" value="$$\ket{q_2}$$" style="text;html=1;align=center;verticalAlign=middle;whiteSpace=wrap;rounded=0;" vertex="1" parent="1">
          <mxGeometry x="530" y="185" width="30" height="30" as="geometry" />
        </mxCell>
        <mxCell id="nGFGVpOnhUjNSuGuY7ih-77" value="$$\ket{q_3}$$" style="text;html=1;align=center;verticalAlign=middle;whiteSpace=wrap;rounded=0;" vertex="1" parent="1">
          <mxGeometry x="530" y="225" width="30" height="30" as="geometry" />
        </mxCell>
        <mxCell id="nGFGVpOnhUjNSuGuY7ih-78" value="$$\ket{q_4}$$" style="text;html=1;align=center;verticalAlign=middle;whiteSpace=wrap;rounded=0;" vertex="1" parent="1">
          <mxGeometry x="530" y="265" width="30" height="30" as="geometry" />
        </mxCell>
        <mxCell id="nGFGVpOnhUjNSuGuY7ih-81" value="" style="endArrow=none;html=1;rounded=0;entryX=1;entryY=0.5;entryDx=0;entryDy=0;exitX=1;exitY=0.5;exitDx=0;exitDy=0;" edge="1" parent="1" source="nGFGVpOnhUjNSuGuY7ih-78">
          <mxGeometry width="50" height="50" relative="1" as="geometry">
            <mxPoint x="600" y="279.6" as="sourcePoint" />
            <mxPoint x="1040" y="279.6" as="targetPoint" />
          </mxGeometry>
        </mxCell>
        <mxCell id="nGFGVpOnhUjNSuGuY7ih-83" value="" style="endArrow=none;html=1;rounded=0;" edge="1" parent="1" source="nGFGVpOnhUjNSuGuY7ih-60" target="nGFGVpOnhUjNSuGuY7ih-82">
          <mxGeometry width="50" height="50" relative="1" as="geometry">
            <mxPoint x="595" y="155" as="sourcePoint" />
            <mxPoint x="1040" y="155" as="targetPoint" />
          </mxGeometry>
        </mxCell>
        <mxCell id="nGFGVpOnhUjNSuGuY7ih-84" value="" style="shape=mxgraph.sysml.x;strokeWidth=1.618;" vertex="1" parent="1">
          <mxGeometry x="730" y="190" width="20" height="20" as="geometry" />
        </mxCell>
        <mxCell id="nGFGVpOnhUjNSuGuY7ih-85" value="" style="endArrow=none;html=1;rounded=0;entryX=0.489;entryY=0.476;entryDx=0;entryDy=0;entryPerimeter=0;exitX=0.506;exitY=0.538;exitDx=0;exitDy=0;exitPerimeter=0;" edge="1" parent="1" source="nGFGVpOnhUjNSuGuY7ih-84" target="nGFGVpOnhUjNSuGuY7ih-82">
          <mxGeometry width="50" height="50" relative="1" as="geometry">
            <mxPoint x="750" y="270" as="sourcePoint" />
            <mxPoint x="800" y="220" as="targetPoint" />
          </mxGeometry>
        </mxCell>
        <mxCell id="nGFGVpOnhUjNSuGuY7ih-86" value="" style="rounded=0;whiteSpace=wrap;html=1;fillColor=none;dashed=1;dashPattern=8 8;" vertex="1" parent="1">
          <mxGeometry x="705" y="130" width="70" height="100" as="geometry" />
        </mxCell>
        <mxCell id="nGFGVpOnhUjNSuGuY7ih-87" value="$$\textbf{Initial Mapping}$$" style="text;html=1;align=center;verticalAlign=middle;whiteSpace=wrap;rounded=0;" vertex="1" parent="1">
          <mxGeometry x="200" y="320" width="140" height="30" as="geometry" />
        </mxCell>
        <mxCell id="nGFGVpOnhUjNSuGuY7ih-88" value="$$\textbf{Updated Mapping}$$" style="text;html=1;align=center;verticalAlign=middle;whiteSpace=wrap;rounded=0;" vertex="1" parent="1">
          <mxGeometry x="730" y="320" width="140" height="30" as="geometry" />
        </mxCell>
        <mxCell id="nGFGVpOnhUjNSuGuY7ih-89" value="$$\texttt{swap}~\text{gate}$$" style="text;html=1;align=center;verticalAlign=middle;whiteSpace=wrap;rounded=0;" vertex="1" parent="1">
          <mxGeometry x="670" y="100" width="140" height="30" as="geometry" />
        </mxCell>
      </root>
    </mxGraphModel>
  </diagram>
</mxfile>
